<svg width="524" height="524" xmlns="http://www.w3.org/2000/svg" xmlns:xlink="http://www.w3.org/1999/xlink" xml:space="preserve" overflow="hidden"><defs><clipPath id="clip0"><rect x="3405" y="1343" width="524" height="524"/></clipPath></defs><g clip-path="url(#clip0)" transform="translate(-3405 -1343)"><g><g><g><path d="M3797.97 1514.31 3621.97 1680.69 3537.41 1594.06 3508.19 1621.91 3620.59 1737.41 3650.16 1709.91 3825.81 1543.19Z"/></g></g></g><path d="M3405 1605C3405 1460.3 3522.3 1343 3667 1343 3811.7 1343 3929 1460.3 3929 1605 3929 1749.7 3811.7 1867 3667 1867 3522.3 1867 3405 1749.7 3405 1605ZM3831.92 1732.27C3902.21 1641.19 3885.35 1510.37 3794.27 1440.08 3719.29 1382.22 3614.71 1382.22 3539.73 1440.08ZM3502.08 1477.73C3431.79 1568.81 3448.65 1699.63 3539.73 1769.92 3614.71 1827.78 3719.29 1827.78 3794.27 1769.92Z" fill="#FF604F" fill-rule="evenodd"/></g></svg>