<svg width="1728" height="1865" xmlns="http://www.w3.org/2000/svg" xmlns:xlink="http://www.w3.org/1999/xlink" xml:space="preserve" overflow="hidden"><defs><clipPath id="clip0"><rect x="2267" y="279" width="1728" height="1865"/></clipPath><linearGradient x1="3752.68" y1="450.912" x2="2956.32" y2="1593.09" gradientUnits="userSpaceOnUse" spreadMethod="reflect" id="fill1"><stop offset="0" stop-color="#A9D18E"/><stop offset="0.5" stop-color="#70AD47"/><stop offset="1" stop-color="#385723"/></linearGradient><linearGradient x1="3544.19" y1="1092.14" x2="3288.81" y2="1875.86" gradientUnits="userSpaceOnUse" spreadMethod="reflect" id="fill2"><stop offset="0" stop-color="#FFC444"/><stop offset="0.9964" stop-color="#F36F56"/><stop offset="1" stop-color="#F36F56"/></linearGradient><linearGradient x1="3653.76" y1="1116.87" x2="3179.24" y2="1851.13" gradientUnits="userSpaceOnUse" spreadMethod="reflect" id="fill3"><stop offset="0" stop-color="#FFD966"/><stop offset="0.9964" stop-color="#548235"/><stop offset="1" stop-color="#548235"/></linearGradient><linearGradient x1="3460.92" y1="1290.17" x2="2422.08" y2="1360.83" gradientUnits="userSpaceOnUse" spreadMethod="reflect" id="fill4"><stop offset="0" stop-color="#404040"/><stop offset="0.9964" stop-color="#3B3838"/><stop offset="1" stop-color="#3B3838"/></linearGradient><linearGradient x1="3346.19" y1="525.562" x2="2594.81" y2="2126.44" gradientUnits="userSpaceOnUse" spreadMethod="reflect" id="fill5"><stop offset="0" stop-color="#404040"/><stop offset="0.9964" stop-color="#3B3838"/><stop offset="1" stop-color="#3B3838"/></linearGradient><linearGradient x1="2449.35" y1="1280.34" x2="3501.65" y2="1420.66" gradientUnits="userSpaceOnUse" spreadMethod="reflect" id="fill6"><stop offset="0" stop-color="#E41C1C"/><stop offset="0.0036" stop-color="#E41C1C"/><stop offset="1" stop-color="#FFD966"/></linearGradient><linearGradient x1="2907.78" y1="603.336" x2="2896.22" y2="634.665" gradientUnits="userSpaceOnUse" spreadMethod="reflect" id="fill7"><stop offset="0" stop-color="#CA2B00"/><stop offset="0.5" stop-color="#CA2B00"/><stop offset="1" stop-color="#FFD966"/></linearGradient><linearGradient x1="3765.94" y1="1380.26" x2="3714.06" y2="1172.74" gradientUnits="userSpaceOnUse" spreadMethod="reflect" id="fill8"><stop offset="0" stop-color="#9DC3E6"/><stop offset="0.5" stop-color="#5B9BD5"/><stop offset="1" stop-color="#2E75B6"/></linearGradient><linearGradient x1="3703.91" y1="1151.65" x2="3709.09" y2="1201.35" gradientUnits="userSpaceOnUse" spreadMethod="reflect" id="fill9"><stop offset="0" stop-color="#F36F56"/><stop offset="0.0036" stop-color="#F36F56"/><stop offset="1" stop-color="#FFC444"/></linearGradient><linearGradient x1="3416.48" y1="871.265" x2="3463.52" y2="880.735" gradientUnits="userSpaceOnUse" spreadMethod="reflect" id="fill10"><stop offset="0" stop-color="#FF5543"/><stop offset="0.5" stop-color="#FF604F"/><stop offset="1" stop-color="#E41C1C"/></linearGradient><linearGradient x1="3450.43" y1="904.966" x2="3429.57" y2="847.034" gradientUnits="userSpaceOnUse" spreadMethod="reflect" id="fill11"><stop offset="0" stop-color="#FF5543"/><stop offset="0.5" stop-color="#FF604F"/><stop offset="1" stop-color="#E41C1C"/></linearGradient><linearGradient x1="3831.15" y1="1297.83" x2="3828.86" y2="1237.17" gradientUnits="userSpaceOnUse" spreadMethod="reflect" id="fill12"><stop offset="0" stop-color="#26264F"/><stop offset="0.0036" stop-color="#26264F"/><stop offset="1" stop-color="#444B8C"/></linearGradient><linearGradient x1="3814.27" y1="1282.99" x2="3812.73" y2="1362.01" gradientUnits="userSpaceOnUse" spreadMethod="reflect" id="fill13"><stop offset="0" stop-color="#F36F56"/><stop offset="0.0036" stop-color="#F36F56"/><stop offset="1" stop-color="#FFC444"/></linearGradient><linearGradient x1="3837.01" y1="1269.91" x2="3795.99" y2="1295.09" gradientUnits="userSpaceOnUse" spreadMethod="reflect" id="fill14"><stop offset="0" stop-color="#F36F56"/><stop offset="0.0036" stop-color="#F36F56"/><stop offset="1" stop-color="#FFC444"/></linearGradient><linearGradient x1="3504.44" y1="1181.76" x2="3533.56" y2="1239.24" gradientUnits="userSpaceOnUse" spreadMethod="reflect" id="fill15"><stop offset="0" stop-color="#F36F56"/><stop offset="0.0036" stop-color="#F36F56"/><stop offset="1" stop-color="#FFC444"/></linearGradient><linearGradient x1="3807.33" y1="2093.48" x2="3809.67" y2="2070.52" gradientUnits="userSpaceOnUse" spreadMethod="reflect" id="fill16"><stop offset="0" stop-color="#444B8C"/><stop offset="0.9964" stop-color="#26264F"/><stop offset="1" stop-color="#26264F"/></linearGradient><linearGradient x1="3826.73" y1="2077.15" x2="3826.27" y2="2054.85" gradientUnits="userSpaceOnUse" spreadMethod="reflect" id="fill17"><stop offset="0" stop-color="#FFC444"/><stop offset="0.9964" stop-color="#F36F56"/><stop offset="1" stop-color="#F36F56"/></linearGradient><linearGradient x1="3752.17" y1="2079.15" x2="3751.83" y2="2056.85" gradientUnits="userSpaceOnUse" spreadMethod="reflect" id="fill18"><stop offset="0" stop-color="#FFC444"/><stop offset="0.9964" stop-color="#F36F56"/><stop offset="1" stop-color="#F36F56"/></linearGradient><linearGradient x1="3740.09" y1="2105.62" x2="3748.91" y2="2066.38" gradientUnits="userSpaceOnUse" spreadMethod="reflect" id="fill19"><stop offset="0" stop-color="#444B8C"/><stop offset="0.9964" stop-color="#26264F"/><stop offset="1" stop-color="#26264F"/></linearGradient><linearGradient x1="3785.7" y1="1605.7" x2="3890.3" y2="2063.3" gradientUnits="userSpaceOnUse" spreadMethod="reflect" id="fill20"><stop offset="0" stop-color="#311944"/><stop offset="0.5" stop-color="#5D295D"/><stop offset="1" stop-color="#893976"/></linearGradient><linearGradient x1="3785.7" y1="1605.7" x2="3890.3" y2="2063.3" gradientUnits="userSpaceOnUse" spreadMethod="reflect" id="fill21"><stop offset="0" stop-color="#311944"/><stop offset="0.5" stop-color="#5D295D"/><stop offset="1" stop-color="#893976"/></linearGradient><linearGradient x1="3652.94" y1="1826.91" x2="3835.06" y2="1823.09" gradientUnits="userSpaceOnUse" spreadMethod="reflect" id="fill22"><stop offset="0" stop-color="#311944"/><stop offset="0.5" stop-color="#5D295D"/><stop offset="1" stop-color="#893976"/></linearGradient><linearGradient x1="3659.92" y1="1182.16" x2="3786.08" y2="1738.84" gradientUnits="userSpaceOnUse" spreadMethod="reflect" id="fill23"><stop offset="0" stop-color="#9DC3E6"/><stop offset="0.5" stop-color="#5B9BD5"/><stop offset="1" stop-color="#2E75B6"/></linearGradient><linearGradient x1="3637.13" y1="1333.03" x2="3728.87" y2="1728.97" gradientUnits="userSpaceOnUse" spreadMethod="reflect" id="fill24"><stop offset="0" stop-color="#9DC3E6"/><stop offset="0.5" stop-color="#5B9BD5"/><stop offset="1" stop-color="#2E75B6"/></linearGradient><linearGradient x1="2377" y1="667" x2="2754" y2="667" gradientUnits="userSpaceOnUse" spreadMethod="reflect" id="fill25"><stop offset="0" stop-color="#FFC444"/><stop offset="0.9964" stop-color="#F36F56"/><stop offset="1" stop-color="#F36F56"/></linearGradient><linearGradient x1="2662.75" y1="2112.45" x2="2662.25" y2="2133.55" gradientUnits="userSpaceOnUse" spreadMethod="reflect" id="fill26"><stop offset="0" stop-color="#444B8C"/><stop offset="0.9964" stop-color="#26264F"/><stop offset="1" stop-color="#26264F"/></linearGradient><linearGradient x1="2656" y1="2106.5" x2="2639" y2="2106.5" gradientUnits="userSpaceOnUse" spreadMethod="reflect" id="fill27"><stop offset="0" stop-color="#311944"/><stop offset="0.5" stop-color="#68295D"/><stop offset="1" stop-color="#A03976"/></linearGradient><linearGradient x1="2464.55" y1="2091.74" x2="2460.45" y2="2145.26" gradientUnits="userSpaceOnUse" spreadMethod="reflect" id="fill28"><stop offset="0" stop-color="#444B8C"/><stop offset="0.9964" stop-color="#26264F"/><stop offset="1" stop-color="#26264F"/></linearGradient><linearGradient x1="2488" y1="2096.5" x2="2455" y2="2096.5" gradientUnits="userSpaceOnUse" spreadMethod="reflect" id="fill29"><stop offset="0" stop-color="#311944"/><stop offset="0.5" stop-color="#68295D"/><stop offset="1" stop-color="#A03976"/></linearGradient><linearGradient x1="2649.33" y1="2107.36" x2="2690.67" y2="1684.64" gradientUnits="userSpaceOnUse" spreadMethod="reflect" id="fill30"><stop offset="0" stop-color="#311944"/><stop offset="0.5" stop-color="#5D295D"/><stop offset="1" stop-color="#893976"/></linearGradient><linearGradient x1="2534.07" y1="2091.26" x2="2558.93" y2="1693.74" gradientUnits="userSpaceOnUse" spreadMethod="reflect" id="fill31"><stop offset="0" stop-color="#311944"/><stop offset="0.5" stop-color="#5D295D"/><stop offset="1" stop-color="#893976"/></linearGradient><linearGradient x1="2314.51" y1="1681.87" x2="2697.49" y2="1252.13" gradientUnits="userSpaceOnUse" spreadMethod="reflect" id="fill32"><stop offset="0" stop-color="#444B8C"/><stop offset="0.9964" stop-color="#26264F"/><stop offset="1" stop-color="#26264F"/></linearGradient><linearGradient x1="2854.48" y1="1407.22" x2="2295.52" y2="1713.78" gradientUnits="userSpaceOnUse" spreadMethod="reflect" id="fill33"><stop offset="0" stop-color="#FFC444"/><stop offset="0.9964" stop-color="#F36F56"/><stop offset="1" stop-color="#F36F56"/></linearGradient><linearGradient x1="2544.71" y1="1354.9" x2="2444.29" y2="1806.1" gradientUnits="userSpaceOnUse" spreadMethod="reflect" id="fill34"><stop offset="0" stop-color="#FFC444"/><stop offset="0.9964" stop-color="#F36F56"/><stop offset="1" stop-color="#F36F56"/></linearGradient><linearGradient x1="2561.71" y1="1319.73" x2="2511.29" y2="1559.27" gradientUnits="userSpaceOnUse" spreadMethod="reflect" id="fill35"><stop offset="0" stop-color="#FFC444"/><stop offset="0.9964" stop-color="#F36F56"/><stop offset="1" stop-color="#F36F56"/></linearGradient><linearGradient x1="2600" y1="1451" x2="2835" y2="1451" gradientUnits="userSpaceOnUse" spreadMethod="reflect" id="fill36"><stop offset="0" stop-color="#BFBFBF"/><stop offset="0.51" stop-color="#E7E6E6"/><stop offset="1" stop-color="#A6A6A6"/></linearGradient><linearGradient x1="2622.65" y1="1263.2" x2="2681.35" y2="1346.8" gradientUnits="userSpaceOnUse" spreadMethod="reflect" id="fill37"><stop offset="0" stop-color="#311944"/><stop offset="0.5" stop-color="#68295D"/><stop offset="1" stop-color="#A03976"/></linearGradient><linearGradient x1="2634.51" y1="1271.12" x2="2671.49" y2="1283.88" gradientUnits="userSpaceOnUse" spreadMethod="reflect" id="fill38"><stop offset="0" stop-color="#311944"/><stop offset="0.5" stop-color="#68295D"/><stop offset="1" stop-color="#A03976"/></linearGradient><linearGradient x1="2620" y1="1450" x2="2835" y2="1450" gradientUnits="userSpaceOnUse" spreadMethod="reflect" id="fill39"><stop offset="0" stop-color="#BFBFBF"/><stop offset="0.51" stop-color="#E7E6E6"/><stop offset="1" stop-color="#A6A6A6"/></linearGradient><linearGradient x1="2833.43" y1="1438.32" x2="2813.57" y2="1384.68" gradientUnits="userSpaceOnUse" spreadMethod="reflect" id="fill40"><stop offset="0" stop-color="#311944"/><stop offset="0.5" stop-color="#68295D"/><stop offset="1" stop-color="#A03976"/></linearGradient></defs><g clip-path="url(#clip0)" transform="translate(-2267 -279)"><path d="M3157.88 422.385C2715.52 409.322 2332.35 730.304 2274.46 1151.47 2211.16 1611.96 2559.53 2026.3 2988.2 2092.66 3521.37 2175.2 4038.52 1697.68 3992.09 1179.65 3957.1 789.353 3607.55 435.663 3157.88 422.385Z" fill="#FFC931" fill-rule="evenodd"/><path d="M3194.53 1633.95C3106.14 1638.84 2937.66 1285.7 3055.37 1097.8 3104.49 1019.39 3178.62 1009.38 3209.97 909.535 3237.94 820.444 3191.28 789.042 3205.94 689.812 3226.56 550.284 3350.33 399.027 3464.33 410.628 3521.53 416.449 3585.52 464.21 3604.01 532.063 3618.81 586.407 3573.86 641.687 3589.75 652.694 3602.79 661.734 3629.27 624.909 3652.56 631.772 3686.91 641.895 3710.61 745.948 3679.57 833.225 3626.41 982.643 3446.59 987.87 3439.24 1095.56 3434.56 1164.19 3506.02 1185.58 3494.25 1256.3 3483.89 1318.51 3423.85 1330.34 3347.01 1407.36 3226.65 1528.01 3241.92 1631.33 3194.53 1633.95Z" fill="url(#fill1)" fill-rule="evenodd"/><path d="M3216.61 1711.82C3214.83 1712.34 3212.84 1711.7 3211.73 1710.09 3210.75 1708.68 3210.71 1706.9 3211.47 1705.49 3211.5 1702.81 3209.71 1694.16 3207.68 1684.23 3196.21 1628.37 3165.75 1480 3196.02 1243.89 3234.08 946.953 3352.75 623.065 3548.73 281.225 3549.94 279.107 3552.65 278.372 3554.77 279.584 3556.89 280.798 3557.63 283.5 3556.41 285.62 3345.86 652.887 3115.95 1193.35 3216.36 1682.46 3220.9 1704.58 3221.72 1708.57 3217.89 1711.22 3217.49 1711.49 3217.06 1711.69 3216.61 1711.82Z" fill="#FFFFFF" fill-rule="evenodd"/><path d="M3277.66 928.823C3275.42 929.478 3273.03 928.267 3272.25 926.041 3271.44 923.742 3272.66 921.227 3274.97 920.417 3464.66 854.2 3577.16 786.383 3638.13 741.151 3704.15 692.171 3725.61 658.417 3725.82 658.082 3727.11 656.017 3729.83 655.379 3731.91 656.663 3733.98 657.946 3734.62 660.661 3733.34 662.731 3732.46 664.142 3711.16 697.836 3644.13 747.697 3582.63 793.436 3469.18 861.976 3277.88 928.749 3277.81 928.773 3277.73 928.798 3277.66 928.823Z" fill="#FFFFFF" fill-rule="evenodd"/><path d="M3345.82 715.823C3344.95 716.078 3343.99 716.067 3343.07 715.729 3291.56 696.851 3256.05 632.919 3237.53 525.708 3223.87 446.683 3225.02 372.084 3225.03 371.339 3225.07 368.897 3227.08 366.955 3229.52 367.001 3231.95 367.044 3233.89 369.055 3233.85 371.495 3233.79 374.423 3230.06 664.902 3346.1 707.436 3348.39 708.274 3349.57 710.811 3348.73 713.1 3348.23 714.471 3347.12 715.442 3345.82 715.823Z" fill="#FFFFFF" fill-rule="evenodd"/><path d="M3195.82 1301.82C3194.58 1302.18 3193.2 1302 3192.06 1301.21 3120.59 1251.67 3086.04 1165.1 3069.65 1101.2 3051.95 1032.24 3051.01 974.059 3051 973.483 3050.97 971.04 3052.92 969.032 3055.36 969.001 3057.81 968.964 3059.81 970.922 3059.85 973.365 3059.85 973.935 3060.8 1031.23 3078.27 1099.19 3094.29 1161.56 3127.92 1245.98 3197.1 1293.94 3199.1 1295.33 3199.6 1298.09 3198.21 1300.09 3197.61 1300.96 3196.76 1301.55 3195.82 1301.82Z" fill="#FFFFFF" fill-rule="evenodd"/><path d="M3167.64 1829C3138.71 1688.08 3142.75 1578.88 3151.19 1507.63 3157.81 1451.71 3172.55 1373.55 3212.39 1363.73 3231.48 1359.02 3242.37 1373.45 3262.29 1367.62 3299.92 1356.6 3298.96 1294.07 3322.7 1248.6 3363.33 1170.79 3494.1 1108.73 3587.75 1154.72 3700.51 1210.12 3712.5 1399.16 3651.86 1457.41 3615.93 1491.93 3551.64 1483.28 3548.14 1508.38 3544.62 1533.64 3609.05 1547.34 3613.57 1587.85 3618.25 1629.78 3555.08 1667.78 3551.24 1670.03 3474.68 1714.98 3414.45 1668.49 3330.43 1689.24 3284.86 1700.49 3225.46 1733.21 3167.64 1829Z" fill="url(#fill2)" fill-rule="evenodd"/><path d="M3167.64 1829C3138.71 1688.08 3142.75 1578.88 3151.19 1507.63 3157.81 1451.71 3172.55 1373.55 3212.39 1363.73 3231.48 1359.02 3242.37 1373.45 3262.29 1367.62 3299.92 1356.6 3298.96 1294.07 3322.7 1248.6 3363.33 1170.79 3494.1 1108.73 3587.75 1154.72 3700.51 1210.12 3712.5 1399.16 3651.86 1457.41 3615.93 1491.93 3551.64 1483.28 3548.14 1508.38 3544.62 1533.64 3609.05 1547.34 3613.57 1587.85 3618.25 1629.78 3555.08 1667.78 3551.24 1670.03 3474.68 1714.98 3414.45 1668.49 3330.43 1689.24 3284.86 1700.49 3225.46 1733.21 3167.64 1829Z" fill="url(#fill3)" fill-rule="evenodd"/><path d="M3152 1943.92 3154.19 1944C3166.74 1606.1 3378.25 1312.27 3720 1158L3719.1 1156C3557.14 1229.11 3419.29 1337.87 3320.47 1470.53 3216.57 1609.99 3158.32 1773.69 3152 1943.92Z" fill="#FFFFFF" fill-rule="evenodd"/><path d="M3049 1453.47C3110.78 1522.32 3170.81 1656.68 3182.83 1753L3185 1752.72C3172.94 1656.03 3112.66 1521.12 3050.63 1452L3049 1453.47Z" fill="#FFFFFF" fill-rule="evenodd"/><path d="M3155 1877.31 3157.08 1878C3172.84 1830.19 3212.19 1792.17 3274.04 1765 3319.4 1745.08 3375.56 1731.34 3441 1724.18L3440.76 1722C3375.1 1729.19 3318.71 1742.98 3273.16 1762.99 3210.71 1790.42 3170.96 1828.89 3155 1877.31Z" fill="#FFFFFF" fill-rule="evenodd"/><path d="M3335.22 1452.21 3337.21 1453C3370.64 1364.63 3347.93 1267.73 3322.99 1202L3321 1202.8C3345.8 1268.17 3368.39 1364.5 3335.22 1452.21Z" fill="#FFFFFF" fill-rule="evenodd"/><path d="M3488 1297.07 3489.03 1299C3583.3 1249.02 3693.9 1267.05 3751.44 1282.25L3752 1280.15C3694.15 1264.86 3582.94 1246.74 3488 1297.07Z" fill="#FFFFFF" fill-rule="evenodd"/><path d="M3250.04 622.335 3411.73 1965.75C3414.15 1985.89 3400.26 2003.95 3380.81 2005.88L2707.35 2079.79C2666.1 2082.35 2643.51 2061.28 2640.96 2039.87L2471.21 611.589C2468.68 590.29 2488.92 571.001 2530.35 571L3209.93 585.308C3229.6 585.637 3247.62 602.298 3250.04 622.335Z" fill="url(#fill4)" fill-rule="evenodd"/><path d="M3280.14 620.152 3442.72 1970.93C3445.16 1991.18 3431.22 2009.34 3411.7 2011.29L2713.49 2080.8C2691.6 2082.98 2671.54 2067.15 2668.98 2045.6L2498.26 609.269C2495.72 587.85 2511.8 570.633 2533.93 571.006L3239.88 582.918C3259.62 583.251 3277.72 600.005 3280.14 620.152Z" fill="url(#fill5)" fill-rule="evenodd"/><path d="M3267.11 694.637 3417.74 1946.41C3420.02 1965.32 3406.97 1982.25 3388.7 1984.02L2732.32 2047.82C2711.97 2049.8 2693.34 2035.02 2690.95 2014.99L2533.25 688.848C2530.88 668.913 2545.8 652.783 2566.34 653.002L3229.47 660.063C3247.93 660.259 3264.85 675.817 3267.11 694.637Z" fill="url(#fill6)" fill-rule="evenodd"/><path d="M2914.91 619.178C2915.76 626.349 2910.68 632.09 2903.55 632 2896.42 631.909 2889.94 626.009 2889.09 618.822 2888.24 611.636 2893.34 605.896 2900.48 606.001 2907.61 606.107 2914.06 612.006 2914.91 619.178Z" fill="url(#fill7)" fill-rule="evenodd"/><path d="M3153.73 1535.38C3019.23 1286.82 2818.3 1212.42 2757.8 956.26 2725.1 817.792 2747.38 685.262 2784.91 575.239L2533.95 571.006C2511.8 570.633 2495.72 587.85 2498.27 609.269L2669.07 2045.6C2671.63 2067.15 2691.71 2082.98 2713.61 2080.8L3262.78 2026.15C3266.84 1803.44 3213.69 1646.17 3153.73 1535.38Z" fill="#FFFFFF" fill-rule="evenodd" fill-opacity="0.309804"/><path d="M3189.89 1364.03C3189.16 1356.86 3183.39 1350.84 3177.01 1351L2801.84 1361.03C2795.13 1361.21 2790.3 1367.69 2791.08 1375.04L2795.4 1416.04C2796.18 1423.39 2802.25 1429.21 2808.96 1428.99L3183.69 1417.29C3190.07 1417.09 3194.65 1411.1 3193.93 1403.95L3189.89 1364.03Z" fill="#FFFFFF" fill-rule="evenodd"/><path d="M3162.33 1451.65C3161.6 1444.48 3155.82 1438.8 3149.39 1439.01L2850.82 1448.72C2844.12 1448.93 2839.31 1455.09 2840.08 1462.41L2860.76 1658.35C2861.53 1665.64 2867.56 1671.3 2874.23 1670.99L3171.65 1656.91C3178.05 1656.6 3182.66 1650.56 3181.92 1643.43L3162.33 1451.65ZM3075.24 1600.58C3076.2 1609.79 3070.19 1616.97 3061.86 1617.34L2977.62 1621.08C2969.19 1621.46 2961.57 1614.83 2960.6 1605.54L2950.83 1511.64C2949.86 1502.34 2955.91 1494.05 2964.37 1493.74L3048.8 1490.72C3057.14 1490.43 3064.7 1498.17 3065.65 1507.4L3075.24 1600.58Z" fill="#FFFFFF" fill-rule="evenodd"/><path d="M3002.98 1602.99C2999.96 1603.12 2996.81 1601.98 2994.24 1599.54L2969.51 1576.03C2964.35 1571.12 2963.49 1562.86 2967.59 1557.57 2971.69 1552.29 2979.19 1551.99 2984.34 1556.9L2999.72 1571.56 3037.95 1522.13C3042.02 1516.88 3049.44 1516.6 3054.54 1521.5 3059.64 1526.4 3060.49 1534.61 3056.44 1539.86L3010.92 1598.82C3008.88 1601.46 3006 1602.86 3002.98 1602.99Z" fill="#FFFFFF" fill-rule="evenodd"/><path d="M3179.86 959 2714.8 959C2683.1 959 2658.85 984.571 2662.33 1017.11L2675.77 1142.54C2679.24 1174.96 2709.02 1201.5 2740.57 1200.99L3203.67 1193.6C3233.21 1193.13 3254.85 1167.21 3251.69 1136L3239.48 1015.04C3236.32 983.73 3209.52 959 3179.86 959Z" fill="#FFFFFF" fill-rule="evenodd"/><path d="M3714.89 1182C3714.89 1182 3702.02 1277.81 3803 1345.37L3695.54 1371C3695.54 1371 3661.15 1306.7 3686.05 1200.21L3714.89 1182Z" fill="url(#fill8)" fill-rule="evenodd"/><path d="M3695.92 1200C3695.92 1200 3690.18 1185.72 3691.1 1179.3 3692.03 1172.87 3707.22 1164.3 3717.58 1155.44 3727.93 1146.59 3717.19 1164.35 3714.78 1168.39 3712.37 1172.43 3703.93 1178.49 3705.14 1192.23L3695.92 1200Z" fill="url(#fill9)" fill-rule="evenodd"/><path d="M3147.43 1128.8 3518.94 632.048 3910.92 925.197 3539.41 1421.95Z" fill="#FFFFFF" fill-rule="evenodd"/><path d="M3529.22 826 3460 774.655 3511.77 706 3581 757.348 3529.22 826ZM3481.6 771.563 3526.11 804.574 3559.39 760.44 3514.89 727.428 3481.6 771.563Z" fill="#D8DEE8" fill-rule="evenodd"/><path d="M3570.31 828.074 3593.36 797.258 3827.56 972.411 3804.51 1003.23Z" fill="#D8DEE8" fill-rule="evenodd"/><path d="M3448.23 935 3379 883.228 3430.78 814 3500 865.772 3448.23 935ZM3400.61 880.111 3445.11 913.396 3478.4 868.889 3433.9 835.611 3400.61 880.111Z" fill="#D8DEE8" fill-rule="evenodd"/><path d="M3489.19 936.546 3512.23 905.73 3746.43 1080.88 3723.39 1111.7Z" fill="#D8DEE8" fill-rule="evenodd"/><path d="M3367.22 1043 3298 991.653 3349.77 923 3419 974.347 3367.22 1043ZM3319.6 988.562 3364.11 1021.57 3397.39 977.438 3352.89 944.427 3319.6 988.562Z" fill="#D8DEE8" fill-rule="evenodd"/><path d="M3408.06 1045.01 3431.11 1014.19 3665.31 1189.35 3642.26 1220.16Z" fill="#D8DEE8" fill-rule="evenodd"/><path d="M3286.23 1152 3217 1100.23 3268.78 1031 3338 1082.77 3286.23 1152ZM3238.61 1097.11 3283.11 1130.4 3316.4 1085.89 3271.89 1052.61 3238.61 1097.11Z" fill="#D8DEE8" fill-rule="evenodd"/><path d="M3326.94 1153.48 3349.98 1122.67 3584.18 1297.82 3561.14 1328.63Z" fill="#D8DEE8" fill-rule="evenodd"/><path d="M3479.73 783.331C3479.69 783.306 3479.66 783.281 3479.63 783.256 3477.86 781.921 3476.69 779.984 3476.56 777.754L3475.01 752.133C3474.77 747.873 3477.96 744.262 3482.17 744.013 3486.39 743.764 3489.99 747.032 3490.24 751.288L3491.2 768.148 3572.86 751.778C3577.01 750.946 3581.03 753.666 3581.85 757.845 3582.68 762.025 3579.99 766.092 3575.84 766.918L3485.68 784.871C3483.55 785.299 3481.46 784.635 3479.73 783.331Z" fill="#A9D18E" fill-rule="evenodd"/><path d="M3314.73 1003.37C3314.69 1003.35 3314.66 1003.32 3314.63 1003.3 3312.86 1002 3311.69 1000.1 3311.56 997.93L3310.01 972.932C3309.77 968.781 3312.96 965.255 3317.17 965.013 3321.39 964.77 3324.99 967.957 3325.24 972.108L3326.2 988.563 3407.87 972.586C3412.01 971.774 3416.03 974.428 3416.85 978.506 3417.67 982.583 3414.98 986.551 3410.84 987.363L3320.68 1004.87C3318.56 1005.29 3316.46 1004.65 3314.73 1003.37Z" fill="#A9D18E" fill-rule="evenodd"/><path d="M3234.73 1111.32C3234.69 1111.3 3234.66 1111.27 3234.63 1111.25 3232.86 1109.92 3231.69 1107.98 3231.56 1105.75L3230.01 1080.13C3229.77 1075.88 3232.95 1072.26 3237.17 1072.01 3241.39 1071.77 3244.99 1075.03 3245.24 1079.29L3246.2 1096.15 3327.86 1079.78C3332 1078.94 3336.03 1081.66 3336.85 1085.85 3337.68 1090.03 3334.98 1094.09 3330.84 1094.92L3240.68 1112.87C3238.55 1113.3 3236.46 1112.63 3234.73 1111.32Z" fill="#A9D18E" fill-rule="evenodd"/><path d="M3441.75 926.461C3440.18 925.281 3439.06 923.494 3438.76 921.383L3426.08 832.815C3425.48 828.6 3428.38 824.688 3432.56 824.08 3436.76 823.472 3440.64 826.396 3441.24 830.617L3453.92 919.179C3454.52 923.4 3451.62 927.312 3447.43 927.92 3445.34 928.224 3443.33 927.647 3441.75 926.461Z" fill="url(#fill10)" fill-rule="evenodd"/><path d="M3391.1 888.472C3389.51 887.295 3388.39 885.527 3388.08 883.431 3387.47 879.247 3390.4 875.359 3394.62 874.761L3483.18 862.079C3487.4 861.476 3491.31 864.378 3491.92 868.568 3492.52 872.753 3489.6 876.635 3485.38 877.239L3396.82 889.92C3394.71 890.222 3392.68 889.649 3391.1 888.472Z" fill="url(#fill11)" fill-rule="evenodd"/><path d="M3814.97 1275.65C3810.5 1266.85 3808.65 1266.89 3807.56 1262.24 3805.05 1251.65 3811.52 1238.19 3817 1238 3820.53 1237.88 3820.83 1243.37 3828.31 1251.93 3837.47 1262.43 3843.04 1261.05 3848.43 1270.15 3849.7 1272.28 3855.37 1281.87 3851.88 1289.02 3847.42 1298.16 3829.85 1299.6 3822.51 1292.56 3819.02 1289.22 3820.48 1286.5 3814.97 1275.65Z" fill="url(#fill12)" fill-rule="evenodd"/><path d="M3831.89 1284.03C3831.89 1284.03 3828.2 1303.76 3830.83 1319.79 3833.2 1334.29 3860 1349.35 3865.14 1353.66 3870.27 1357.98 3851.51 1362.67 3834.3 1360.41 3817.09 1358.15 3769.97 1343.05 3762.81 1334.63 3755.65 1326.21 3771.15 1330.35 3784.19 1328.76 3797.22 1327.17 3809.66 1305.28 3810.04 1294.11 3810.42 1282.94 3831.89 1284.03 3831.89 1284.03Z" fill="url(#fill13)" fill-rule="evenodd"/><path d="M3823.1 1298.44C3823.1 1298.44 3811.89 1303.54 3801.95 1295.31 3793.05 1287.93 3806.28 1265.29 3815.33 1265 3818.35 1264.91 3822.76 1267.15 3825.36 1270.42 3826.9 1272.36 3826.99 1273.65 3829.56 1276.77 3831.93 1279.64 3832.97 1279.89 3833.33 1281.3 3833.79 1283.04 3833.01 1285.95 3826.92 1290.96 3829.95 1290.38 3832.57 1291.21 3833.58 1293.04 3833.74 1293.34 3834.08 1294.25 3833.98 1295.2 3833.62 1298.61 3829.31 1300.19 3823.1 1298.44Z" fill="url(#fill14)" fill-rule="evenodd"/><path d="M3536 1230.49C3536 1230.49 3527.91 1229.36 3530.43 1213.9 3532.41 1201.78 3530.91 1197.71 3528.05 1199.86 3525.19 1202 3524.79 1209.01 3524.79 1209.01 3524.79 1209.01 3514.35 1200.11 3510.06 1188.44 3505.76 1176.78 3503 1186.61 3502.08 1192.44 3501.16 1198.27 3508.22 1216.37 3512.21 1219.75 3516.2 1223.12 3522.02 1238 3522.02 1238L3536 1230.49Z" fill="url(#fill15)" fill-rule="evenodd"/><path d="M3831.12 2073.9C3835.2 2082.63 3834.05 2086.38 3833.03 2088.03 3830.06 2092.88 3822.89 2088.3 3804.16 2090.63 3801.97 2090.9 3797.77 2091.49 3792.54 2090.2 3788.07 2089.09 3782.78 2086.59 3783.01 2085.34 3783.09 2084.88 3783.89 2084.69 3784.19 2084.63 3789.38 2083.47 3821.91 2073 3821.91 2073L3831.12 2073.9Z" fill="url(#fill16)" fill-rule="evenodd"/><path d="M3834 2055.84 3830.99 2074.78C3830.99 2074.78 3822.7 2080.52 3820.52 2073.54 3818.96 2068.52 3819 2055 3819 2055L3834 2055.84Z" fill="url(#fill17)" fill-rule="evenodd"/><path d="M3742 2057.23 3750.15 2079 3762 2077.16 3759.25 2057Z" fill="url(#fill18)" fill-rule="evenodd"/><path d="M3753.35 2090.39C3758.89 2083.95 3763.84 2084.53 3764.84 2080.11 3765.63 2076.63 3763.45 2072.37 3760.17 2070.75 3755.55 2068.47 3749.96 2072.03 3748.7 2072.83 3740.12 2078.29 3742.46 2086.82 3734.37 2090.51 3732.74 2091.26 3730.16 2092.05 3727.45 2094.54 3726.29 2095.6 3723.43 2098.22 3724.1 2100.03 3724.88 2102.12 3729.97 2102.05 3734.82 2101.97 3740.64 2101.89 3743.55 2101.85 3746.35 2100.14 3750.22 2097.78 3749.07 2095.36 3753.35 2090.39Z" fill="url(#fill19)" fill-rule="evenodd"/><path d="M3896 1607C3893.85 1650.65 3887.57 1687.91 3880.41 1718.28 3872.72 1750.96 3868.53 1756.55 3865.86 1779.2 3860.05 1828.49 3875.92 1835.9 3877.65 1891.79 3879.57 1953.51 3862.02 2002.15 3855.13 2020.7 3849.11 2036.92 3842.89 2050 3838.23 2059.06 3832.44 2063.87 3823.78 2061.79 3814.65 2059.74 3812.48 2003.76 3809.41 1951.05 3807.23 1895.06 3798.16 1810.71 3789.08 1726.37 3780 1642.02 3818.67 1630.34 3857.33 1618.67 3896 1607Z" fill="url(#fill20)" fill-rule="evenodd"/><path d="M3814.65 2059.75C3812.48 2003.76 3809.41 1951.05 3807.23 1895.06 3798.15 1810.71 3789.08 1726.37 3780 1642.01 3818.67 1630.34 3857.33 1618.67 3896 1607 3895.86 1609.89 3895.65 1612.67 3895.48 1615.51 3840.6 1660.85 3829.26 1697.46 3829.24 1722.59 3829.22 1753.07 3845.66 1768.53 3841.44 1812.64 3838.41 1844.18 3828.74 1849.53 3828.13 1878.04 3827.34 1914.74 3842.75 1935.71 3850.01 1957.08 3857.03 1977.74 3859.05 2006.84 3843.75 2047.82 3841.77 2052.04 3839.9 2055.82 3838.23 2059.07 3832.44 2063.87 3823.78 2061.79 3814.65 2059.75Z" fill="url(#fill21)" fill-rule="evenodd"/><path d="M3830 1639.83C3795.45 1682.13 3775.74 1721.66 3764.38 1749.36 3750.7 1782.69 3740.78 1807.67 3743.89 1840.02 3747.31 1875.62 3763.46 1888.42 3774.19 1918.77 3784.59 1948.21 3789.66 1993.51 3762.52 2060.91 3755.69 2063.28 3748.86 2065.64 3742.04 2068 3737.5 2049.79 3730.16 2022.54 3719.18 1990.09 3697.43 1925.79 3675.76 1883.48 3669.89 1870.34 3649.25 1824.06 3647.16 1741.42 3733.09 1582 3765.39 1601.27 3797.7 1620.55 3830 1639.83Z" fill="url(#fill22)" fill-rule="evenodd"/><path d="M3515 1234.1C3524.08 1227.73 3533.16 1221.37 3542.23 1215 3553.28 1283 3578.39 1309.69 3599.72 1321.37 3651.17 1349.53 3697.09 1299.34 3795.56 1319.82 3822.7 1325.47 3870 1335.98 3896.23 1374.7 3903.12 1384.87 3905.58 1392.58 3917.02 1465.59 3931.66 1558.91 3932.18 1575.2 3930.12 1595.29 3926.34 1632.06 3924.06 1654.35 3907.12 1674.08 3862.17 1726.45 3766.61 1699.44 3754.63 1695.89 3732.5 1689.33 3698.1 1679.12 3684.44 1649.83 3678 1636.05 3678.69 1623.46 3688.57 1573.06 3708.15 1473.23 3710.65 1466.77 3705.19 1455.84 3686.74 1418.95 3628.31 1440.06 3578.95 1405.75 3550.09 1385.69 3517.56 1341.98 3515 1234.1Z" fill="url(#fill23)" fill-rule="evenodd"/><path d="M3799.87 1682.58C3790.19 1662.78 3803.19 1644.54 3788.93 1620.74 3770.75 1590.42 3738.05 1600.72 3725.74 1578.31 3704.69 1540 3787.53 1486.55 3770.7 1425.55 3762.67 1396.42 3734.6 1375.34 3711.16 1367.35 3659.1 1349.62 3625.06 1394.82 3576.27 1380.69 3564.7 1377.34 3551.42 1370.4 3538 1356 3549.87 1380.98 3564.61 1396.07 3578.5 1405.69 3628.06 1440.01 3686.73 1418.89 3705.25 1455.79 3710.74 1466.73 3708.23 1473.19 3688.57 1573.05 3678.65 1623.46 3677.96 1636.06 3684.42 1649.84 3698.14 1679.14 3732.68 1689.35 3754.9 1695.92 3761.49 1697.86 3793.22 1706.81 3828 1705.94 3812.48 1699.65 3804.13 1691.31 3799.87 1682.58Z" fill="url(#fill24)" fill-rule="evenodd"/><path d="M2732 648.497C2732 752.618 2648.01 842.634 2544.08 849.574 2439.8 856.539 2355 777.271 2355 672.504 2355 567.737 2439.8 477.669 2544.08 471.35 2648.01 465.053 2732 544.373 2732 648.497Z" fill="#C55A11" fill-rule="evenodd"/><path d="M2754 654.965C2754 759.361 2670.01 849.62 2566.08 856.573 2461.8 863.557 2377 784.079 2377 679.037 2377 573.993 2461.8 483.686 2566.08 477.351 2670.01 471.038 2754 550.567 2754 654.965Z" fill="url(#fill25)" fill-rule="evenodd"/><path d="M2559.52 769.95C2551.34 770.49 2543.72 766.672 2539.49 759.856L2468.35 645.366C2461.68 634.637 2465.28 619.941 2476.37 612.544 2487.46 605.152 2501.84 607.853 2508.5 618.577L2557.83 698.051 2622.93 565.173C2628.77 553.248 2642.81 547.778 2654.27 552.95 2665.73 558.12 2670.3 571.971 2664.46 583.889L2580.34 755.746C2576.48 763.612 2568.83 769.031 2560.34 769.881 2560.07 769.912 2559.79 769.931 2559.52 769.95Z" fill="#FFFFFF" fill-rule="evenodd"/><path d="M2639.77 2113C2639.77 2113 2638.4 2123.96 2639.31 2127.63 2640.23 2131.3 2671.83 2133.95 2682.56 2132.68 2693.28 2131.4 2676.17 2120.35 2669.33 2118.28 2662.5 2116.21 2639.77 2113 2639.77 2113Z" fill="url(#fill26)" fill-rule="evenodd"/><path d="M2656 2094.99 2652.54 2117.25C2652.54 2117.25 2643.71 2121.15 2639.47 2117.3L2639 2094 2656 2094.99Z" fill="url(#fill27)" fill-rule="evenodd"/><path d="M2475.71 2094.45C2475.71 2094.45 2482.51 2099.45 2480.69 2105.43 2478.88 2111.42 2463.02 2135.4 2451.71 2142.21 2440.41 2149.02 2443.95 2134.84 2447.24 2126 2450.53 2117.17 2458.94 2097.71 2462.22 2094.45 2465.5 2091.19 2475.71 2094.45 2475.71 2094.45Z" fill="url(#fill28)" fill-rule="evenodd"/><path d="M2488 2070C2484.71 2079.17 2481.55 2086.71 2479.08 2092.27 2473.6 2104.56 2470.61 2109.18 2467.22 2113.18 2464.27 2116.66 2457.28 2124.1 2455.4 2122.86 2453.49 2121.61 2458.6 2112.57 2468.47 2086.09 2469.9 2082.24 2474.42 2070 2474.42 2070L2474.42 2070 2488 2070Z" fill="url(#fill29)" fill-rule="evenodd"/><path d="M2722.1 1688.64C2724.41 1711.55 2726.64 1747.11 2723.31 1790.26 2718.98 1846.49 2707.8 1882.06 2693.8 1942.01 2685.23 1978.65 2673.69 2032.57 2663.26 2100 2660.83 2101.4 2653.7 2105.07 2644.53 2103.7 2639.39 2102.93 2635.55 2100.87 2633.28 2099.4 2605.89 2015.16 2613.98 1962.96 2627.2 1930.44 2632.83 1916.58 2639.66 1905.64 2643.32 1884.33 2648.15 1856.14 2642.17 1840.38 2633.65 1775.07 2627.58 1728.53 2628.63 1721.33 2632.67 1714.35 2648.82 1686.44 2698.23 1686.99 2722.1 1688.64Z" fill="url(#fill30)" fill-rule="evenodd"/><path d="M2627 1698C2610.11 1785.36 2593.54 1831.23 2580.99 1857.18 2577.9 1863.58 2567.58 1884.23 2557.83 1913.83 2549.19 1940.03 2545.59 1959.31 2543.74 1967.79 2537.92 1994.56 2523.53 2033.66 2484.82 2084.94 2484.33 2085.22 2477.73 2088.96 2471.42 2085.62 2468.23 2083.94 2466.63 2081.25 2466 2079.99 2471.06 2030.97 2476.87 1989.77 2481.92 1957.97 2482.97 1951.31 2487.63 1922.13 2494.94 1883.58 2497.8 1868.5 2501.99 1846.4 2507.02 1823.69 2513.27 1795.42 2522.85 1756.97 2537.62 1710.88 2567.42 1706.59 2597.21 1702.3 2627 1698Z" fill="url(#fill31)" fill-rule="evenodd"/><path d="M2642 1352.91C2651.59 1344.04 2669.96 1333.81 2679.17 1310.04 2681.94 1302.88 2691.76 1277.52 2677.27 1258.12 2668.67 1246.61 2652.7 1238.79 2638.62 1241.56 2626.59 1243.93 2624.71 1252.3 2604.27 1269.17 2596.31 1275.73 2583.52 1286.28 2569.28 1292.15 2544.89 1302.2 2530.24 1292.74 2505.75 1293.82 2475.67 1295.15 2440.72 1311.93 2423.89 1336.35 2394.01 1379.67 2437.29 1423.62 2404.56 1474.38 2393.84 1491.01 2388.55 1487.28 2363.15 1519.47 2337.71 1551.7 2324.99 1567.82 2327.26 1587.57 2330.4 1614.98 2359.92 1641.17 2387.73 1642.94 2414.88 1644.69 2432.15 1623.32 2445.98 1632.66 2455.82 1639.31 2450.19 1652.25 2460.64 1667.8 2474.12 1687.84 2500.6 1691.84 2504.88 1692.48 2544.57 1698.47 2598.1 1651.92 2620.83 1596.77 2661.82 1497.33 2589.81 1401.14 2642 1352.91Z" fill="url(#fill32)" fill-rule="evenodd"/><path d="M2805 1380.25C2805.27 1352.49 2742.24 1330.3 2713.4 1323.15 2668.53 1312.03 2632.61 1319.02 2623.88 1320.86 2567.93 1332.72 2533.09 1366.32 2519.97 1380.43 2530.71 1387.43 2560.35 1408.78 2575.03 1449.28 2579.59 1461.88 2593.08 1504.96 2573.79 1545.31 2562.67 1568.57 2543.01 1586.02 2528.07 1599.28 2505.67 1619.16 2494.07 1622.22 2486.56 1640.04 2478.38 1659.44 2486.62 1668.89 2476.46 1682.18 2465.55 1696.44 2452.77 1689.81 2434.28 1704.24 2415.34 1719.01 2422.08 1731.17 2404.85 1747.5 2379.8 1771.22 2346.6 1763.52 2345.05 1774.19 2343.72 1783.37 2367.32 1795.83 2387.37 1800.88 2427.07 1810.88 2461.7 1794.09 2472 1788.91 2500.51 1774.58 2495.58 1765.31 2517.32 1754.38 2553.72 1736.08 2578.59 1756.45 2661.5 1758.54 2706.39 1759.68 2729.09 1759.93 2741.53 1744.73 2752.88 1730.85 2746.91 1715.62 2740.09 1650 2736.86 1618.77 2735.69 1587.35 2733.29 1556.04 2726.53 1467.48 2726.32 1459.69 2732.33 1447.44 2753.84 1403.57 2804.76 1405.17 2805 1380.25Z" fill="url(#fill33)" fill-rule="evenodd"/><path d="M2404.74 1747.47C2421.94 1731.16 2415.22 1719.01 2434.12 1704.25 2452.58 1689.84 2465.34 1696.46 2476.22 1682.21 2486.36 1668.94 2478.14 1659.49 2486.3 1640.1 2493.8 1622.31 2505.38 1619.25 2527.74 1599.38 2542.65 1586.13 2562.28 1568.69 2573.38 1545.46 2592.63 1505.14 2579.17 1462.1 2574.61 1449.51 2559.96 1409.04 2530.38 1387.71 2519.66 1380.72 2520.69 1379.61 2521.91 1378.34 2523.21 1377 2593.84 1386.73 2635.01 1427.6 2640.11 1439.7 2651.88 1467.68 2633.24 1477.95 2632.76 1558.64 2632.53 1597.21 2636.69 1612.44 2624.19 1628.53 2609.9 1646.95 2593.44 1641.24 2572.77 1665.32 2556.9 1683.81 2559.44 1695.54 2544.61 1703.33 2528.67 1711.7 2518.52 1701.94 2500.54 1705.78 2470.5 1712.2 2464.08 1746.88 2444.22 1765.86 2429.2 1780.21 2401.44 1790.25 2346.69 1779.48 2345.42 1777.63 2344.81 1775.83 2345.05 1774.14 2346.6 1763.48 2379.74 1771.17 2404.74 1747.47Z" fill="url(#fill34)" fill-rule="evenodd"/><path d="M2618.96 1460.82C2626.49 1476.8 2591.89 1514.04 2553.43 1531.72 2545.59 1535.32 2489.32 1561.19 2464.24 1536.32 2443.51 1515.76 2456.89 1473.26 2461.66 1458.08 2485.11 1383.58 2557.12 1345.67 2587.3 1332 2609.82 1388.3 2596.55 1413.39 2591.33 1421.22 2585.88 1429.4 2570.66 1446.59 2554.49 1461.73 2543.12 1472.38 2536.04 1477.57 2536.99 1479.23 2538.18 1481.3 2551.51 1477.39 2603.28 1452.2 2609.28 1453.17 2616.39 1455.36 2618.96 1460.82Z" fill="url(#fill35)" fill-rule="evenodd"/><path d="M2834.79 1369.44 2809.45 1495.99C2808.64 1500.05 2805.51 1503.23 2801.47 1504.1L2612.53 1544.77C2605.76 1546.22 2599.5 1540.73 2600.03 1533.81L2610 1405.11C2610.35 1400.63 2613.51 1396.9 2617.84 1395.83 2647.82 1388.41 2763.18 1360.63 2824.02 1357.02 2830.82 1356.62 2836.13 1362.75 2834.79 1369.44Z" fill="url(#fill36)" fill-rule="evenodd"/><path d="M2646.33 1277C2646.33 1277 2642.78 1305.54 2632.31 1312.07 2621.83 1318.61 2604.9 1327.15 2603.04 1329.46 2601.17 1331.78 2667.92 1339 2701 1322.21L2701 1322.21C2690.1 1319.92 2687.13 1319.08 2687.13 1319.08 2684.18 1318.25 2678.66 1316.68 2673.13 1313.51 2669.36 1311.35 2663.29 1307.14 2657.73 1299.19L2657.84 1283.39 2646.33 1277Z" fill="url(#fill37)" fill-rule="evenodd"/><path d="M2644.65 1287.49C2644.65 1287.49 2651.71 1297 2662.79 1293.03 2672.71 1289.48 2666.79 1264.36 2658.92 1261.49 2656.3 1260.53 2651.48 1260.96 2648.25 1262.93 2645.99 1264.31 2639.94 1271.69 2643.4 1279.95 2640.9 1279.23 2638.7 1279.88 2638.14 1281.1 2637.44 1282.65 2639.56 1284.75 2640.05 1285.22 2641.71 1286.88 2643.72 1287.33 2644.65 1287.49Z" fill="url(#fill38)" fill-rule="evenodd"/><path d="M2664.73 1478.74C2685.01 1473.01 2701.83 1487.24 2717.99 1475.99 2734.54 1464.44 2723.73 1444.74 2740.94 1425.35 2759.34 1404.63 2782.68 1414.78 2799.72 1395.9 2806.04 1388.89 2811.73 1377.47 2811.81 1357.99 2816.08 1357.58 2820.17 1357.25 2824.03 1357.02 2830.82 1356.62 2836.13 1362.74 2834.79 1369.43L2809.46 1495.86C2808.65 1499.91 2805.52 1503.09 2801.49 1503.96L2620 1543C2632.82 1497.93 2649.92 1482.93 2664.73 1478.74Z" fill="url(#fill39)" fill-rule="evenodd"/><path d="M2823.49 1437C2823.49 1437 2835.56 1425.82 2836.87 1412.82 2838.19 1399.83 2829.07 1389.43 2820.25 1386.79 2811.43 1384.13 2806.71 1388.04 2812.64 1400.83 2818.56 1413.63 2827.96 1421.93 2823.49 1437Z" fill="url(#fill40)" fill-rule="evenodd"/></g></svg>