<svg width="298" height="299" xmlns="http://www.w3.org/2000/svg" xmlns:xlink="http://www.w3.org/1999/xlink" xml:space="preserve" overflow="hidden"><g transform="translate(-855 -277)"><path d="M149 31.0417C83.8125 31.0417 31.0417 83.8125 31.0417 149 31.0417 214.188 83.8125 266.958 149 266.958 214.188 266.958 266.958 214.188 266.958 149 266.958 83.8125 214.188 31.0417 149 31.0417ZM68.2917 149C68.2917 133.479 72.6375 118.89 80.3979 106.783L191.527 217.912C179.11 225.363 164.521 229.708 149 229.708 104.61 229.708 68.2917 193.39 68.2917 149ZM217.602 191.217 106.783 80.3979C118.89 72.6375 133.479 68.2917 149 68.2917 193.39 68.2917 229.708 104.61 229.708 149 229.708 164.521 225.363 179.11 217.602 191.217Z" transform="matrix(1 0 0 1.00336 855 277)"/></g></svg>