<svg width="654" height="654" xmlns="http://www.w3.org/2000/svg" xmlns:xlink="http://www.w3.org/1999/xlink" xml:space="preserve" overflow="hidden"><g transform="translate(-313 -33)"><path d="M619.195 441.75 660.887 441.75 674.103 400.875 605.978 400.875 619.195 441.75Z"/><path d="M620.216 455.375 610.952 589.786 640.041 618.875 669.13 589.786 659.865 455.375 620.216 455.375Z"/><path d="M858 475.54C857.617 455.554 848.279 436.797 832.562 424.446 807.111 403.614 777.197 390.752 745.798 379.525L712.383 365.811C709.827 364.761 708.159 362.272 708.159 359.51L708.159 342.792C733.386 322.601 748.33 292.238 748.939 259.931L766.297 230.154C768.896 224.015 769.94 217.329 769.335 210.69 765.387 166.044 738.311 126.739 698.002 107.14 694.755 105.617 690.94 105.958 688.015 108.033L681.134 112.802 673.524 102.399C671.182 99.1178 667.658 96.8735 663.694 96.1382 656.606 94.9151 649.426 94.3043 642.234 94.3125 580.877 94.3203 528.205 137.98 516.816 198.271L516.544 199.756C513.236 217.447 506.386 234.286 496.406 249.263L531.068 249.263 531.068 257.812C531.07 290.85 546.084 322.097 571.875 342.744L571.875 359.475C571.875 362.238 570.207 364.727 567.651 365.777L534.27 379.463C502.851 390.697 472.958 403.539 447.656 424.228 431.763 436.671 422.348 455.631 422.041 475.812L422.041 595.031 427.491 599.119C457.364 621.525 536.368 628.746 580.772 631.056L596.802 631.887 570.288 394.131 577.993 390.97C590.791 385.753 599.149 373.297 599.125 359.475L599.125 358.794C625.338 369.499 654.703 369.499 680.916 358.794L680.916 359.475C680.884 373.298 689.237 385.76 702.035 390.983L709.74 394.144 683.219 631.901 699.241 631.069C743.679 628.76 822.684 621.532 852.564 599.132L858.014 595.045ZM558.318 257.812 558.318 249.263 605.794 249.263C675.827 249.263 666.303 193.448 696.946 185.457 705.367 183.889 714.068 185.009 721.818 188.659L721.818 257.812C721.818 302.962 685.217 339.562 640.068 339.562 594.919 339.562 558.318 302.962 558.318 257.812ZM803.534 509.875 742.222 509.875 742.222 496.25 803.534 496.25Z"/></g></svg>