<svg width="646" height="645" xmlns="http://www.w3.org/2000/svg" xmlns:xlink="http://www.w3.org/1999/xlink" xml:space="preserve" overflow="hidden"><g transform="translate(-237 9)"><path d="M221.719 206.938C221.719 240.333 194.646 267.406 161.25 267.406 127.854 267.406 100.781 240.333 100.781 206.938 100.781 173.542 127.854 146.469 161.25 146.469 194.646 146.469 221.719 173.542 221.719 206.938Z" transform="matrix(1.00155 0 0 1 237 -9)"/><path d="M544.219 206.938C544.219 240.333 517.146 267.406 483.75 267.406 450.354 267.406 423.281 240.333 423.281 206.938 423.281 173.542 450.354 146.469 483.75 146.469 517.146 146.469 544.219 173.542 544.219 206.938Z" transform="matrix(1.00155 0 0 1 237 -9)"/><path d="M443.438 498.531 443.438 438.062C443.438 428.656 439.406 419.25 431.344 413.875 415.219 400.438 393.719 391.031 372.219 385.656 357.438 381.625 339.969 377.594 322.5 377.594 306.375 377.594 288.906 380.281 272.781 385.656 251.281 391.031 231.125 401.781 213.656 413.875 205.594 420.594 201.562 428.656 201.562 438.062L201.562 498.531 443.438 498.531Z" transform="matrix(1.00155 0 0 1 237 -9)"/><path d="M382.969 301C382.969 334.396 355.896 361.469 322.5 361.469 289.104 361.469 262.031 334.396 262.031 301 262.031 267.604 289.104 240.531 322.5 240.531 355.896 240.531 382.969 267.604 382.969 301Z" transform="matrix(1.00155 0 0 1 237 -9)"/><path d="M592.594 319.812C576.469 306.375 554.969 296.969 533.469 291.594 518.688 287.562 501.219 283.531 483.75 283.531 467.625 283.531 450.156 286.219 434.031 291.594 425.969 294.281 417.906 296.969 409.844 301L409.844 302.344C409.844 325.188 400.438 346.688 385.656 361.469 411.188 369.531 431.344 380.281 447.469 392.375 451.5 396.406 455.531 399.094 458.219 404.469L604.688 404.469 604.688 344C604.688 334.594 600.656 325.188 592.594 319.812Z" transform="matrix(1.00155 0 0 1 237 -9)"/><path d="M197.531 392.375 197.531 392.375C216.344 378.938 237.844 368.188 259.344 361.469 244.563 345.344 235.156 325.188 235.156 302.344 235.156 301 235.156 301 235.156 299.656 227.094 296.969 219.031 292.938 210.969 291.594 196.188 287.562 178.719 283.531 161.25 283.531 145.125 283.531 127.656 286.219 111.531 291.594 90.0312 298.312 69.875 307.719 52.4062 319.812 44.3438 325.188 40.3125 334.594 40.3125 344L40.3125 404.469 185.438 404.469C189.469 399.094 192.156 396.406 197.531 392.375Z" transform="matrix(1.00155 0 0 1 237 -9)"/></g></svg>