<svg width="519" height="518" xmlns="http://www.w3.org/2000/svg" xmlns:xlink="http://www.w3.org/1999/xlink" xml:space="preserve" overflow="hidden"><g transform="translate(-631 -54)"><path d="M269.792 161.875 248.208 161.875C236.338 161.875 226.625 152.163 226.625 140.292L226.625 97.125C226.625 85.2542 236.338 75.5417 248.208 75.5417L269.792 75.5417C281.663 75.5417 291.375 85.2542 291.375 97.125L291.375 140.292C291.375 152.163 281.663 161.875 269.792 161.875Z" transform="matrix(1.00193 0 0 1 631 54)"/><path d="M431.667 269.792 302.167 269.792 302.167 248.208 431.667 248.208 431.667 269.792ZM431.667 334.542 302.167 334.542 302.167 312.958 431.667 312.958 431.667 334.542ZM431.667 399.292 302.167 399.292 302.167 377.708 431.667 377.708 431.667 399.292ZM259 399.292 86.3333 399.292 86.3333 356.125C86.3333 349.65 89.5708 343.175 94.9667 338.858 106.838 330.225 121.946 322.671 137.054 318.354 148.925 315.117 160.796 312.958 172.667 312.958 185.617 312.958 197.488 315.117 208.279 318.354 223.388 322.671 238.496 329.146 250.367 338.858 255.763 343.175 259 349.65 259 356.125L259 399.292ZM172.667 215.833C196.408 215.833 215.833 235.258 215.833 259 215.833 282.742 196.408 302.167 172.667 302.167 148.925 302.167 129.5 282.742 129.5 259 129.5 235.258 148.925 215.833 172.667 215.833ZM453.25 140.292 312.958 140.292C312.958 164.033 293.533 183.458 269.792 183.458L248.208 183.458C224.467 183.458 205.042 164.033 205.042 140.292L64.75 140.292C52.8792 140.292 43.1667 150.004 43.1667 161.875L43.1667 420.875C43.1667 432.746 52.8792 442.458 64.75 442.458L453.25 442.458C465.121 442.458 474.833 432.746 474.833 420.875L474.833 161.875C474.833 150.004 465.121 140.292 453.25 140.292Z" transform="matrix(1.00193 0 0 1 631 54)"/></g></svg>