<svg width="492" height="493" xmlns="http://www.w3.org/2000/svg" xmlns:xlink="http://www.w3.org/1999/xlink" xml:space="preserve" overflow="hidden"><g transform="translate(-405 -125)"><path d="M245.928 51.25C138.43 51.25 51.2859 138.394 51.2859 245.892 51.2859 353.39 138.43 440.535 245.928 440.535 353.426 440.535 440.571 353.39 440.571 245.892 440.571 245.886 440.571 245.879 440.571 245.872 440.608 138.422 353.532 51.2869 246.082 51.25 246.031 51.25 245.979 51.25 245.928 51.25ZM341.351 263.22 263.256 263.22 263.256 341.294 228.601 341.294 228.601 263.199 150.506 263.199 150.506 228.544 228.601 228.544 228.601 150.45 263.256 150.45 263.256 228.544 341.351 228.544Z" transform="matrix(1 0 0 1.00203 405 125)"/></g></svg>