<svg width="336" height="335" xmlns="http://www.w3.org/2000/svg" xmlns:xlink="http://www.w3.org/1999/xlink" xml:space="preserve" overflow="hidden"><g transform="translate(-262 -171)"><path d="M191.104 192.974C195.033 196.792 195.124 203.073 191.305 207.003 191.239 207.071 191.172 207.138 191.104 207.204L174.067 212.816 171.063 209.811 176.674 192.775C180.743 188.919 187.143 189.007 191.104 192.974ZM268.084 90.1394 169.678 188.766 157.031 226.847 195.312 214.219 293.739 115.812Z" transform="matrix(1.00299 0 0 1 262 171)"/><path d="M315.172 82.9369 300.942 68.7064C297.858 65.5515 292.801 65.4935 289.646 68.5769 289.603 68.6195 289.559 68.6628 289.517 68.7064L275.485 82.738 300.942 108.177 314.97 94.149C318.117 91.38 318.423 86.5842 315.655 83.4373 315.502 83.2632 315.341 83.096 315.172 82.9369Z" transform="matrix(1.00299 0 0 1 262 171)"/><path d="M90.7292 226.823 146.011 226.823 150.638 212.865 90.7292 212.865 90.7292 226.823Z" transform="matrix(1.00299 0 0 1 262 171)"/><path d="M90.7292 143.073 200.47 143.073 214.4 129.115 90.7292 129.115 90.7292 143.073Z" transform="matrix(1.00299 0 0 1 262 171)"/><path d="M244.271 180.062 244.271 286.146 69.7917 286.146 69.7917 69.7917 108.177 69.7917 108.177 90.7292 205.885 90.7292 205.885 69.7917 244.271 69.7917 244.271 99.1809 260.672 82.738 260.672 82.738 261.269 82.1413 265.208 78.2016 265.208 62.8125C265.208 55.1037 258.959 48.8542 251.25 48.8542L191.927 48.8542 191.927 41.875C191.927 34.166 185.678 27.9167 177.969 27.9167L136.094 27.9167C128.385 27.9167 122.135 34.166 122.135 41.875L122.135 48.8542 62.8125 48.8542C55.1037 48.8542 48.8542 55.1037 48.8542 62.8125L48.8542 293.125C48.8542 300.834 55.1037 307.083 62.8125 307.083L251.25 307.083C258.959 307.083 265.208 300.834 265.208 293.125L265.208 159.125ZM149.577 44.89C151.549 42.9145 154.24 41.8261 157.031 41.875 162.813 41.875 167.5 46.5619 167.5 52.3438 167.5 58.1256 162.813 62.8125 157.031 62.8125 151.249 62.8125 146.562 58.1256 146.562 52.3438 146.514 49.5528 147.602 46.862 149.577 44.89Z" transform="matrix(1.00299 0 0 1 262 171)"/><path d="M90.7292 184.948 158.595 184.948 172.525 170.99 90.7292 170.99 90.7292 184.948Z" transform="matrix(1.00299 0 0 1 262 171)"/></g></svg>