<svg width="311" height="311" xmlns="http://www.w3.org/2000/svg" xmlns:xlink="http://www.w3.org/1999/xlink" xml:space="preserve" overflow="hidden"><g transform="translate(-585 -390)"><path d="M649.792 558.458 740.5 558.458 740.5 571.417 649.792 571.417Z"/><path d="M649.792 584.375 740.5 584.375 740.5 597.333 649.792 597.333Z"/><path d="M664.046 527.034C664.37 527.034 698.709 514.724 740.5 514.724 782.291 514.724 816.63 527.034 816.954 527.034 818.25 527.358 819.222 527.682 820.518 527.682 825.053 527.682 829.265 524.767 830.56 519.907 832.504 514.076 829.589 507.597 823.757 505.653 822.461 505.005 785.854 492.047 740.5 492.047 695.146 492.047 658.539 505.005 656.919 505.653 651.411 507.597 648.172 514.076 650.116 519.907 652.383 526.062 658.539 528.978 664.046 527.034"/><path d="M610.917 636.208 870.083 636.208 870.083 454.792 610.917 454.792 610.917 636.208ZM850.646 616.771 630.354 616.771 630.354 474.229 850.646 474.229 850.646 616.771Z"/><path d="M823.109 569.149 824.405 560.402 815.982 562.022 812.743 553.599 806.264 559.43 799.46 553.599 796.545 562.022 787.798 560.402 789.418 569.149 780.995 572.065 786.826 578.868 780.995 585.347 789.418 588.586 787.798 597.009 796.545 595.714 799.46 603.812 806.264 598.305 812.743 603.812 815.982 595.714 824.405 597.009 823.109 588.586 831.208 585.347 825.701 578.868 831.208 572.065Z"/></g></svg>