<?xml version="1.0" encoding="utf-8"?>
<!-- Uploaded to: SVG Repo, www.svgrepo.com, Generator: SVG Repo Mixer Tools -->
<svg width="800px" height="800px" viewBox="0 0 1024 1024" class="icon"  version="1.1" xmlns="http://www.w3.org/2000/svg"><path d="M312.685714 370.688a36.571429 36.571429 0 0 1 0 73.142857H164.571429a73.142857 73.142857 0 0 0-73.142858 73.142857v292.571429a73.142857 73.142857 0 0 0 73.142858 73.142857h658.285714a73.142857 73.142857 0 0 0 73.142857-73.142857v-292.571429a73.142857 73.142857 0 0 0-73.142857-73.142857H673.426286a36.571429 36.571429 0 0 1 0-73.142857h149.430857a146.285714 146.285714 0 0 1 146.285714 146.285714v292.571429a146.285714 146.285714 0 0 1-146.285714 146.285714h-658.285714a146.285714 146.285714 0 0 1-146.285715-146.285714v-292.571429a146.285714 146.285714 0 0 1 146.285715-146.285714h148.114285zM457.142857 136.850286L307.126857 285.549714c-11.556571 11.556571-35.84 14.994286-47.469714 3.510857a33.792 33.792 0 0 1 0-45.202285L468.845714 34.962286c5.558857-5.558857 17.334857-12.873143 25.161143-12.873143 7.826286 0 20.114286 7.314286 25.6 12.873143L727.771429 241.517714a32.402286 32.402286 0 0 1 0 44.105143 29.549714 29.549714 0 0 1-41.837715-0.073143L530.285714 132.973714v593.188572c0 16.310857-18.358857 29.549714-34.742857 29.549714-16.310857 0-38.4-13.165714-38.4-29.549714V136.850286z" fill="#000000" /></svg>