<svg width="311" height="311" xmlns="http://www.w3.org/2000/svg" xmlns:xlink="http://www.w3.org/1999/xlink" xml:space="preserve" overflow="hidden"><g transform="translate(-585 -49)"><path d="M691.906 148.779C691.906 164.882 678.853 177.935 662.75 177.935 646.647 177.935 633.594 164.882 633.594 148.779 633.594 132.677 646.647 119.623 662.75 119.623 678.853 119.623 691.906 132.677 691.906 148.779Z"/><path d="M847.406 148.779C847.406 164.882 834.353 177.935 818.25 177.935 802.147 177.935 789.094 164.882 789.094 148.779 789.094 132.677 802.147 119.623 818.25 119.623 834.353 119.623 847.406 132.677 847.406 148.779Z"/><path d="M798.812 289.377 798.812 260.221C798.812 255.685 796.869 251.15 792.981 248.558 785.206 242.079 774.84 237.544 764.473 234.952 757.346 233.008 748.923 231.065 740.5 231.065 732.725 231.065 724.302 232.36 716.527 234.952 706.16 237.544 696.442 242.727 688.019 248.558 684.131 251.798 682.188 255.685 682.188 260.221L682.188 289.377 798.812 289.377Z"/><path d="M769.656 194.133C769.656 210.236 756.603 223.29 740.5 223.29 724.397 223.29 711.344 210.236 711.344 194.133 711.344 178.031 724.397 164.977 740.5 164.977 756.603 164.977 769.656 178.031 769.656 194.133Z"/><path d="M870.731 203.204C862.956 196.725 852.59 192.19 842.223 189.598 835.096 187.654 826.673 185.71 818.25 185.71 810.475 185.71 802.052 187.006 794.277 189.598 790.39 190.894 786.502 192.19 782.615 194.133L782.615 194.781C782.615 205.796 778.079 216.162 770.952 223.29 783.263 227.177 792.981 232.36 800.756 238.192 802.7 240.135 804.644 241.431 805.94 244.023L876.562 244.023 876.562 214.867C876.562 210.331 874.619 205.796 870.731 203.204Z"/><path d="M680.244 238.192 680.244 238.192C689.315 231.712 699.681 226.529 710.048 223.29 702.921 215.515 698.385 205.796 698.385 194.781 698.385 194.133 698.385 194.133 698.385 193.485 694.498 192.19 690.61 190.246 686.723 189.598 679.596 187.654 671.173 185.71 662.75 185.71 654.975 185.71 646.552 187.006 638.777 189.598 628.41 192.837 618.692 197.373 610.269 203.204 606.381 205.796 604.438 210.331 604.438 214.867L604.438 244.023 674.412 244.023C676.356 241.431 677.652 240.135 680.244 238.192Z"/></g></svg>