<svg width="311" height="311" xmlns="http://www.w3.org/2000/svg" xmlns:xlink="http://www.w3.org/1999/xlink" xml:space="preserve" overflow="hidden"><g transform="translate(-914 -390)"><path d="M1090.47 549.909C1086.17 576.585 1075.64 601.87 1059.72 623.704L1060.54 624.526C1055.5 625.103 1050.67 625.738 1046.45 626.35 1047.7 621.064 1046.93 615.503 1044.29 610.755 1041.69 606.86 1037.29 604.56 1032.61 604.658L1032.48 604.658C1023.64 604.726 1014.16 609.433 1006.18 614.817 1005.96 614.322 1005.72 613.829 1005.46 613.347 1002.87 608.698 998.229 605.559 992.952 604.891 988.907 604.417 984.81 605.103 981.14 606.871 982.803 599.842 982.657 592.507 980.716 585.551 978.036 577.287 971.515 570.837 963.222 568.248 957.05 566.237 950.495 565.695 944.076 566.664 938.09 567.532 932.233 569.128 926.634 571.417 921.592 573.257 918.996 578.836 920.837 583.878 922.677 588.92 928.256 591.516 933.298 589.676 933.454 589.619 933.609 589.558 933.761 589.494 937.88 587.798 942.189 586.607 946.593 585.946 950.025 585.379 953.541 585.614 956.866 586.633 959.405 587.231 961.443 589.118 962.234 591.603 965.979 603.035 953.503 629.016 942.823 645.056 942.346 645.742 941.903 646.403 941.485 647.022 938.48 651.47 939.65 657.511 944.097 660.516 948.519 663.503 954.523 662.366 957.547 657.969 957.786 657.622 958.159 657.078 958.645 656.349 968.872 641.447 982.148 627.436 988.329 624.63 987.95 627.436 987.197 630.178 986.09 632.784 983.922 637.694 986.143 643.432 991.053 645.601 994.745 647.232 999.061 646.412 1001.9 643.539 1009.09 636.205 1017.47 630.134 1026.68 625.579 1025.89 628.652 1024.87 631.662 1023.63 634.582 1021.49 639.505 1023.75 645.23 1028.67 647.369 1030.45 648.141 1032.42 648.365 1034.32 648.01 1034.52 647.971 1054.31 644.33 1073.46 642.781 1074.89 642.656 1076.27 642.214 1077.51 641.486L1078.15 642.134C1099.99 626.215 1125.27 615.68 1151.95 611.387 1151.95 611.387 1156.11 588.816 1188.49 556.382L1145.45 513.347C1113.01 545.724 1090.47 549.909 1090.47 549.909ZM1124.29 589.882C1121.78 592.389 1118 593.117 1114.73 591.722L1071.97 634.485 1067.39 629.898 1110.16 587.135C1108.27 582.72 1110.33 577.613 1114.74 575.73 1119.16 573.848 1124.26 575.901 1126.15 580.317 1127.54 583.583 1126.81 587.367 1124.29 589.876Z"/><path d="M1148.67 497.93 1204.01 553.275C1204.01 553.275 1209.49 548.257 1218.46 540.019L1218.46 422.396C1179.92 463.862 1148.67 497.93 1148.67 497.93Z"/></g></svg>