<svg width="311" height="311" xmlns="http://www.w3.org/2000/svg" xmlns:xlink="http://www.w3.org/1999/xlink" xml:space="preserve" overflow="hidden"><g transform="translate(-914 -49)"><path d="M1044.23 260.545C1039.7 260.545 1035.48 259.573 1031.27 257.953 1024.47 255.361 1018.64 250.502 1014.43 244.347 1014.1 244.347 1013.46 244.023 1013.13 244.023L974.256 320.477 1006.98 313.026 1023.5 343.802 1063.99 264.756C1059.46 264.108 1054.92 262.165 1051.03 259.897 1048.77 260.221 1046.5 260.545 1044.23 260.545Z"/><path d="M1111.94 256.333C1107.4 258.277 1102.54 259.249 1097.68 259.249 1095.09 259.249 1092.82 258.925 1090.23 258.601 1085.37 261.841 1079.87 264.108 1074.04 264.756L1116.8 341.858 1133.64 314.322 1166.69 319.829 1125.54 245.967C1121.98 250.502 1117.45 254.066 1111.94 256.333Z"/><path d="M1068.53 216.162C1037.75 216.162 1012.48 191.218 1012.48 160.118 1012.48 129.018 1037.75 104.073 1068.53 104.073 1099.3 104.073 1124.57 129.018 1124.57 160.118 1124.57 191.218 1099.3 216.162 1068.53 216.162ZM1164.1 160.118C1164.1 152.991 1161.18 146.511 1156.32 141.976 1158.91 135.821 1159.24 128.694 1156.32 122.215 1153.73 116.383 1149.19 111.848 1143.69 109.58 1143.36 103.749 1141.09 97.9177 1136.56 93.3823 1131.38 88.199 1124.9 85.9312 1118.09 86.2552 1115.83 80.1 1110.97 74.9167 1104.16 72.325 1098.33 70.0573 1091.85 70.0573 1086.35 72.325 1081.81 68.4375 1076.3 65.8458 1069.82 65.8458 1062.7 65.8458 1056.22 68.7615 1051.68 73.6208 1045.53 71.0292 1038.4 70.7052 1031.92 73.6208 1026.09 76.2125 1021.55 80.7479 1019.29 86.2552 1013.46 86.5792 1007.62 88.8469 1003.09 93.3823 997.905 98.5656 995.638 105.045 995.961 111.848 989.806 114.116 984.623 118.975 982.031 125.778 979.764 131.609 979.764 138.089 982.031 143.596 978.144 148.131 975.552 153.639 975.552 160.118 975.552 167.245 978.468 173.724 983.327 178.259 980.735 184.415 980.411 191.542 983.327 198.021 985.919 203.852 990.454 208.387 995.961 210.655 996.285 216.486 998.553 222.318 1003.09 226.853 1008.27 232.036 1014.75 234.304 1021.55 233.98 1023.82 240.135 1028.68 245.319 1035.48 247.91 1041.32 250.178 1047.79 250.178 1053.3 247.91 1057.84 251.798 1063.34 254.39 1069.82 254.39 1076.95 254.39 1083.43 251.474 1087.97 246.615 1094.12 249.206 1101.25 249.53 1107.73 246.615 1113.56 244.023 1118.09 239.487 1120.36 233.98 1126.19 233.656 1132.02 231.389 1136.56 226.853 1141.74 221.67 1144.01 215.191 1143.69 208.387 1149.84 206.12 1155.03 201.26 1157.62 194.457 1159.88 188.626 1159.88 182.147 1157.62 176.64 1161.5 172.428 1164.1 166.597 1164.1 160.118Z"/></g></svg>