<svg width="588" height="588" xmlns="http://www.w3.org/2000/svg" xmlns:xlink="http://www.w3.org/1999/xlink" xml:space="preserve" overflow="hidden"><g transform="translate(-346 -66)"><path d="M792.513 350.812C771.075 372.862 750.862 386.95 706.763 391.85 718.4 380.212 731.875 368.575 743.513 354.487 748.412 348.975 757.6 336.725 757.6 336.112 768.013 318.962 774.138 299.362 774.138 277.925L774.138 198.3 817.013 198.3 817.013 291.4C817.625 292.625 818.85 323.25 792.513 350.812ZM488.1 350.812C461.15 323.25 462.375 292.625 462.375 291.4L462.375 197.688 505.25 197.688 505.25 277.312C505.25 298.75 511.375 318.35 521.787 335.5 521.787 336.112 530.975 348.975 535.875 353.875 548.125 367.962 560.987 379.6 572.625 391.237 529.75 386.337 508.925 372.25 488.1 350.812ZM854.375 289.562 854.375 160.938 774.75 160.938 774.75 118.062 640 118.062 505.25 118.062 505.25 160.938 425.625 160.938 425.625 288.95C425.625 295.075 425.625 337.337 460.538 374.7 494.225 410.225 535.263 428.6 606.925 429.825 612.438 439.013 615.5 449.425 615.5 460.45L615.5 540.075 584.875 540.075C571.4 540.075 560.375 551.1 560.375 564.575L529.75 564.575C516.275 564.575 505.25 575.6 505.25 589.075L505.25 601.325 774.75 601.325 774.75 589.075C774.75 575.6 763.725 564.575 750.25 564.575L719.625 564.575C719.625 551.1 708.6 540.075 695.125 540.075L664.5 540.075 664.5 461.062C664.5 450.038 667.562 439.625 673.075 430.438 744.737 429.212 785.775 410.225 819.463 375.312 854.375 338.562 854.375 295.688 854.375 289.562Z"/></g></svg>