<svg width="332" height="332" xmlns="http://www.w3.org/2000/svg" xmlns:xlink="http://www.w3.org/1999/xlink" xml:space="preserve" overflow="hidden"><g transform="translate(-524 -277)"><path d="M795.825 335.809 584.175 335.809C577.709 335.876 572.484 341.102 572.417 347.567L572.417 490.438C572.363 496.878 577.54 502.143 583.981 502.196 584.045 502.197 584.11 502.197 584.175 502.196L713.517 502.196 760.55 550.267 760.55 502.542 795.825 502.542C802.291 502.475 807.516 497.249 807.583 490.784L807.583 347.917C807.666 341.332 802.41 335.919 795.825 335.809ZM664.81 444.816C664.802 447.516 662.613 449.702 659.912 449.706L641.583 449.706 641.583 398.349 659.912 398.349C662.609 398.353 664.796 400.533 664.81 403.229ZM736.94 421.583C736.913 424.998 734.528 427.941 731.192 428.676 732.541 430.043 733.288 431.891 733.267 433.811 733.256 437.857 729.978 441.135 725.932 441.146L725.199 441.146C726.48 442.45 727.185 444.212 727.156 446.04 727.143 450.084 723.869 453.36 719.825 453.375L697.819 453.375C681.437 453.375 680.825 443.591 672.145 443.591L672.145 404.464C672.511 404.218 694.15 393.701 694.15 375.116 694.15 371.065 697.434 367.781 701.485 367.781 705.536 367.781 708.82 371.065 708.82 375.116 709.088 383.063 707.844 390.988 705.154 398.47 705.254 400.433 706.856 401.983 708.82 402.019L732.05 402.019C736.096 402.03 739.374 405.308 739.385 409.354 739.422 412.421 737.506 415.173 734.616 416.201 736.108 417.592 736.951 419.543 736.94 421.583Z"/></g></svg>